<svg width="560" height="1040" viewBox="0 0 560 1040" fill="none" xmlns="http://www.w3.org/2000/svg">
  <path d="M455 12C367 134 319 262 334 406C350 566 455 675 436 836C426 914 392 978 334 1030" stroke="#B8CABC" stroke-width="8" stroke-linecap="round" opacity="0.6"/>
  <path d="M362 40C273 173 225 309 248 466C271 612 367 711 347 858C336 930 300 985 241 1032" stroke="#5E7B6B" stroke-width="8" stroke-linecap="round" opacity="0.55"/>
  <path d="M264 74C180 197 136 323 154 467C172 613 262 714 240 847C226 927 189 982 129 1030" stroke="#D6A18B" stroke-width="8" stroke-linecap="round" opacity="0.58"/>
</svg>
