<svg width="760" height="420" viewBox="0 0 760 420" fill="none" xmlns="http://www.w3.org/2000/svg">
  <path d="M52 343C157 233 255 180 354 204C454 229 544 317 654 302C696 296 726 281 744 258" stroke="#D6A18B" stroke-width="7" stroke-linecap="round" opacity="0.48"/>
  <path d="M34 242C142 155 256 120 364 147C472 174 566 259 674 250C713 247 735 237 754 220" stroke="#B8CABC" stroke-width="7" stroke-linecap="round" opacity="0.42"/>
  <path d="M16 142C132 86 252 72 367 98C482 123 582 204 695 203C726 202 744 195 760 185" stroke="#5E7B6B" stroke-width="7" stroke-linecap="round" opacity="0.36"/>
</svg>
