<svg width="512" height="1024" viewBox="0 0 512 1024" fill="none" xmlns="http://www.w3.org/2000/svg">
  <path d="M70 28C174 166 220 280 196 410C171 548 64 645 86 824C95 901 127 959 184 1012" stroke="#D6A18B" stroke-width="8" stroke-linecap="round" opacity="0.65"/>
  <path d="M156 20C260 142 312 264 301 388C290 530 194 648 219 812C229 888 266 955 334 1014" stroke="#B8CABC" stroke-width="8" stroke-linecap="round" opacity="0.62"/>
  <path d="M250 54C348 180 401 312 381 474C362 627 274 725 291 852C302 930 337 978 396 1020" stroke="#5E7B6B" stroke-width="8" stroke-linecap="round" opacity="0.55"/>
</svg>
