<svg width="1600" height="1200" viewBox="0 0 1600 1200" fill="none" xmlns="http://www.w3.org/2000/svg">
  <rect width="1600" height="1200" fill="#F6F0E7"/>
  <rect width="1600" height="1200" fill="url(#paint0_radial)"/>
  <path d="M1117 226C1005 287 954 420 962 565C969 705 1057 836 1179 900" stroke="#335C45" stroke-width="26" stroke-linecap="round"/>
  <path d="M1044 268C947 347 918 469 929 579C940 691 1008 788 1123 858" stroke="#8EB49A" stroke-width="20" stroke-linecap="round"/>
  <path d="M518 252C631 318 684 448 679 587C675 724 596 834 479 902" stroke="#CF7A5B" stroke-width="24" stroke-linecap="round"/>
  <path d="M596 296C684 363 722 471 717 584C712 696 654 786 563 851" stroke="#D9A441" stroke-width="18" stroke-linecap="round"/>
  <path d="M772 215C698 334 684 503 720 657C756 811 840 932 939 1002" stroke="#335C45" stroke-width="28" stroke-linecap="round"/>
  <path d="M824 200C785 322 789 449 818 557C845 659 900 769 978 858" stroke="#CF7A5B" stroke-width="16" stroke-linecap="round"/>
  <ellipse cx="1210" cy="432" rx="88" ry="176" transform="rotate(26 1210 432)" fill="#8EB49A" fill-opacity="0.42"/>
  <ellipse cx="402" cy="505" rx="95" ry="182" transform="rotate(-33 402 505)" fill="#CF7A5B" fill-opacity="0.33"/>
  <ellipse cx="859" cy="905" rx="154" ry="74" transform="rotate(-8 859 905)" fill="#D9A441" fill-opacity="0.28"/>
  <defs>
    <radialGradient id="paint0_radial" cx="0" cy="0" r="1" gradientUnits="userSpaceOnUse" gradientTransform="translate(800 600) rotate(90) scale(620 930)">
      <stop stop-color="#FFFAF4"/>
      <stop offset="1" stop-color="#EDE2D2"/>
    </radialGradient>
  </defs>
</svg>
