<svg version="1.1" id="Layer_1" xmlns="http://www.w3.org/2000/svg" xmlns:xlink="http://www.w3.org/1999/xlink" x="0px" y="0px"
	 width="100%" viewBox="0 0 1024 1024" enable-background="new 0 0 1024 1024" xml:space="preserve">
<!-- AyurJess vivid flat version.
3-color Ayurvedic logic with the updated high-vibrance brand palette:
Pitta / outer flame: Pitta Flame #ED6B2F
Kapha / head + legs + organic middle ring: Kapha Leaf #61BE4A
Vata / thorax + central axis: Vata Flow #31B6D6
Loose petals stay in the flame family to preserve the 3-color system.
-->
<path fill="#61BE4A" opacity="1.000000" stroke="none" 
	d="
M461.653534,624.228027 
	C475.486053,630.216675 488.224823,637.994507 504.420563,639.284546 
	C500.622528,643.468872 496.814331,643.736572 493.161255,644.148376 
	C483.755859,645.208618 475.047455,642.127380 466.352936,639.259338 
	C451.551666,634.376831 436.592010,630.795288 420.811371,632.330139 
	C413.385254,633.052429 406.385681,635.113831 400.133881,639.124878 
	C388.569397,646.544373 389.441833,660.528259 401.797089,666.610535 
	C416.626984,673.911072 432.210144,672.820007 447.788147,670.129822 
	C469.919312,666.307861 489.961182,657.021423 509.295868,645.980774 
	C530.316284,633.977478 551.810364,623.049622 575.870789,618.437927 
	C592.053650,615.336182 608.354614,614.440247 624.352051,619.137512 
	C637.376038,622.961609 648.918396,629.337219 653.157349,643.536194 
	C657.674927,658.668396 649.882385,673.956970 634.645691,681.446167 
	C618.653442,689.306702 601.906067,689.294189 584.807495,686.819153 
	C570.441956,684.739807 556.716248,679.775269 542.322449,677.755127 
	C535.773010,676.835999 530.432190,678.145142 525.032715,681.946350 
	C513.350464,690.170898 502.163910,698.587708 496.424896,712.437500 
	C491.699799,723.840454 493.317780,736.249023 501.213348,743.962891 
	C507.146973,749.760071 514.264587,750.224792 521.649292,747.872314 
	C526.842163,746.218079 530.731567,739.846924 530.783813,734.118713 
	C530.835815,728.427246 527.910889,724.619019 522.764099,723.677246 
	C518.374329,722.873962 515.385925,724.907227 513.100891,730.267151 
	C512.771729,731.039307 512.473083,731.817200 511.553711,732.072876 
	C507.508392,727.807373 508.576172,719.971130 513.879883,716.196533 
	C519.459839,712.225403 525.624329,711.340454 531.861755,714.230957 
	C538.787354,717.440491 543.389343,722.964355 544.218262,730.638184 
	C545.968567,746.841064 539.940796,756.767273 525.741821,762.099121 
	C511.700287,767.371704 494.748535,762.165283 485.642670,750.845459 
	C471.844940,733.693115 475.237610,708.645874 489.235199,693.043823 
	C499.502380,681.599731 512.244080,673.562744 525.515381,666.077087 
	C540.748718,657.484741 555.790649,648.456665 572.805969,643.894409 
	C584.661682,640.715393 596.801819,640.010803 608.696838,644.390991 
	C610.358582,645.002930 612.285522,645.317322 613.791382,648.600220 
	C592.261292,645.717224 573.780945,652.419189 556.403564,662.725220 
	C556.847046,665.167664 558.171997,665.539368 559.497803,665.701599 
	C572.710815,667.318115 585.650024,670.887817 598.988220,671.500000 
	C606.315430,671.836365 613.630981,671.337891 620.573608,668.442871 
	C627.564575,665.527710 632.495483,660.850342 632.747559,652.918701 
	C632.998779,645.015259 627.958252,640.489685 621.359741,637.433960 
	C609.418579,631.904114 596.869324,631.995544 584.151978,633.502563 
	C563.153015,635.991028 544.697388,645.127563 526.642456,655.330994 
	C515.340332,661.718262 504.153534,668.307556 492.313202,673.699341 
	C469.262390,684.196045 445.250549,690.415405 419.778351,689.188721 
	C408.076416,688.625183 396.751770,686.087219 386.698792,679.309509 
	C365.731995,665.173828 366.635406,637.158020 388.612244,624.601013 
	C400.463013,617.829712 413.434082,616.059265 426.747894,616.909729 
	C438.552216,617.663818 450.287231,619.271912 461.653534,624.228027 
z"/>
<path fill="#ED6B2F" opacity="1.000000" stroke="none" 
	d="
M764.312012,550.046448 
	C763.217834,553.889648 761.247742,557.062439 758.743713,559.274719 
	C748.171143,568.615540 747.666260,581.110229 747.377014,593.653748 
	C747.107788,605.327515 746.754211,616.990356 743.820374,628.341980 
	C738.978943,647.074463 728.874512,662.723267 714.928772,675.961243 
	C691.528320,698.174194 663.549133,710.394592 631.682861,714.502625 
	C609.984741,717.299866 589.312622,713.077209 568.801331,706.772827 
	C556.419189,702.966919 544.223206,698.325073 530.847473,699.168945 
	C525.710754,699.492981 520.989807,701.568542 515.755432,701.943481 
	C518.581665,697.138977 522.715088,694.079468 527.710693,692.229370 
	C535.877075,689.205017 544.349792,688.923950 552.836060,690.319580 
	C567.603149,692.748169 581.944031,697.535156 596.844971,699.069397 
	C616.458008,701.088684 635.534668,699.387878 651.980835,686.860962 
	C662.950623,678.505371 669.112305,667.558472 668.783142,653.422974 
	C668.753601,652.153870 668.345276,650.741821 670.012756,649.182800 
	C676.443298,653.508606 677.487854,660.372131 677.993469,667.174683 
	C678.527832,674.364075 675.371460,680.727234 671.877930,686.706421 
	C673.304199,688.175903 674.359314,687.164490 675.250549,686.675720 
	C690.414856,678.361084 703.698914,668.013977 711.108643,651.803284 
	C716.241333,640.574219 716.735168,629.281555 709.858826,618.440063 
	C706.723206,613.496155 701.683777,611.271118 696.200867,611.641785 
	C690.681274,612.014832 686.130554,614.895447 683.924194,620.521179 
	C683.026428,622.810242 682.871399,625.132385 683.564453,627.374023 
	C684.613220,630.766418 686.732849,633.608826 690.582336,633.404053 
	C694.427490,633.199463 696.307129,630.421143 696.678711,626.654663 
	C696.757996,625.851440 696.913879,625.055725 697.029236,624.291809 
	C699.557739,623.276306 700.607544,624.910278 701.505005,626.479370 
	C705.880615,634.129517 700.617310,644.265442 691.806458,645.246277 
	C680.158325,646.542908 669.778442,636.539185 670.160278,624.384399 
	C670.572998,611.245850 679.308716,600.657959 691.241455,598.833435 
	C706.009033,596.575439 719.813660,603.833801 724.094238,616.433228 
	C725.633423,620.963440 726.392090,625.758789 727.515076,630.467163 
	C739.467834,615.085388 729.597046,577.197998 709.819275,562.742432 
	C689.147522,547.633423 659.627869,552.027161 650.829224,563.822876 
	C676.194885,557.741394 698.333679,559.394226 711.721924,585.178040 
	C710.854370,585.952942 710.525574,586.397461 710.391357,586.344910 
	C699.790955,582.195496 689.769409,585.931274 679.749084,588.725525 
	C668.893005,591.752869 658.674072,590.055359 648.702332,585.387390 
	C641.483032,582.008057 634.466492,578.154846 626.095337,578.122864 
	C622.271545,578.108276 618.796143,579.918640 613.786621,580.192810 
	C623.464966,561.256653 637.219482,548.241577 656.292969,542.038574 
	C691.748718,530.507690 718.962280,542.837952 739.342896,573.232727 
	C741.429626,571.016663 740.651062,568.576355 740.704407,566.426575 
	C740.950317,556.511414 742.838867,547.224609 750.087769,539.797424 
	C755.159058,534.601379 761.144348,531.725525 770.229675,531.806458 
	C766.197571,537.983398 766.456848,544.104431 764.312012,550.046448 
z"/>
<path fill="#31B6D6" opacity="1.000000" stroke="none" 
	d="
M498.137207,600.262695 
	C503.781921,590.893188 510.853821,583.035156 518.130127,575.569458 
	C535.268188,557.985229 546.727905,537.457947 553.922791,514.077271 
	C559.204956,496.912079 565.602356,480.121552 575.793701,464.997192 
	C586.465637,449.159607 600.208313,436.437439 615.132324,424.898438 
	C631.484070,412.255524 643.759705,397.156158 647.112854,376.055939 
	C648.421448,367.821655 647.381226,359.798981 645.680969,351.771362 
	C645.432373,350.597839 644.309631,349.322144 645.922241,347.908875 
	C648.606079,348.754974 649.014526,351.558746 650.198059,353.540680 
	C665.472961,379.120880 660.796936,408.151367 638.812073,428.291534 
	C629.644043,436.690247 619.114014,443.023499 609.075073,450.128815 
	C592.889771,461.584351 581.501282,476.952545 573.187988,494.765686 
	C572.232239,496.813507 571.757874,498.877838 573.092468,500.952087 
	C579.789856,511.360443 580.358826,523.197632 581.266052,535.020813 
	C581.875061,542.957703 581.883240,550.929565 583.748474,558.800232 
	C587.323303,573.884583 596.931396,584.268005 609.067139,592.836182 
	C621.611023,601.692505 635.520996,604.807861 650.749390,602.891174 
	C654.800415,602.381226 658.443359,599.584412 662.906494,600.693176 
	C664.045410,604.016785 661.902649,605.887817 659.952759,607.546997 
	C653.989258,612.621521 646.635803,615.146057 639.162598,614.970093 
	C610.754944,614.301147 586.213928,605.233948 570.488403,579.780518 
	C564.955322,570.824646 563.428528,560.479797 562.772095,550.087097 
	C562.450317,544.992126 562.266968,539.888428 562.006775,534.494995 
	C559.804871,535.565369 559.679810,537.290283 559.301270,538.799866 
	C558.122131,543.502319 556.551025,548.083496 554.307983,552.357422 
	C548.706116,563.031372 548.226135,574.426025 549.693604,585.960266 
	C550.961975,595.929626 556.239990,603.611328 564.828430,608.941895 
	C565.932190,609.626953 567.312012,610.066772 567.510620,611.939697 
	C567.150879,612.252441 566.735229,612.912903 566.193604,613.041138 
	C551.503113,616.519958 537.985229,623.003174 524.332153,629.176880 
	C518.298950,631.905029 511.994202,633.173157 505.393707,630.970947 
	C495.109436,627.539612 490.719238,616.008301 495.603058,604.989502 
	C496.275848,603.471558 497.164459,602.049255 498.137207,600.262695 
M531.946899,615.450684 
	C536.311157,611.186157 537.961670,605.909546 537.290894,599.979614 
	C536.693237,594.695984 535.425842,589.488281 535.664001,584.114563 
	C535.723145,582.781677 535.780457,581.273132 534.315735,580.625732 
	C532.619934,579.876160 531.471008,581.140564 530.427734,582.188477 
	C526.432129,586.201843 522.264465,590.074890 518.587097,594.365479 
	C514.825012,598.754822 510.574127,602.839905 508.689423,608.632568 
	C506.321899,615.908875 509.624878,620.745361 517.312988,621.075317 
	C522.768372,621.309387 527.490967,619.770447 531.946899,615.450684 
z"/>
<path fill="#ED6B2F" opacity="1.000000" stroke="none" 
	d="
M501.860657,304.907684 
	C506.262268,296.336365 508.975739,287.482483 512.055603,277.445923 
	C516.027832,284.046783 517.163025,290.175446 519.310669,295.855042 
	C525.712280,312.784363 536.624695,326.887726 546.955200,341.394562 
	C557.184387,355.759064 567.765808,369.892944 574.493774,386.441376 
	C582.839905,406.969696 584.707825,427.749298 577.050964,448.790710 
	C570.233948,467.524445 559.484436,483.830200 545.162842,497.760864 
	C535.835938,506.833191 525.730042,514.987305 515.695190,523.238586 
	C507.643829,529.858887 501.227356,537.909912 496.049500,546.946228 
	C495.720337,547.520630 495.571106,548.198181 495.402832,548.653015 
	C493.088776,547.119141 493.485748,545.775208 493.763733,544.488525 
	C496.387665,532.344177 502.734802,522.403015 511.767700,514.041077 
	C524.343689,502.399200 537.852478,491.635162 547.926941,477.565674 
	C567.985718,449.552490 570.310242,420.172363 555.045166,389.073090 
	C547.347961,373.391754 536.758179,359.696136 527.259583,345.246246 
	C521.951355,337.171112 517.309753,328.769379 513.473999,320.005127 
	C511.435608,320.110443 511.012451,321.596527 510.559113,322.708191 
	C504.391205,337.832916 494.507141,350.666626 485.270630,363.897186 
	C474.226990,379.716309 464.674988,396.273621 461.334747,415.593597 
	C457.842773,435.791107 460.723633,455.045319 470.987427,473.005371 
	C471.852539,474.519104 473.306854,475.895752 472.778046,478.037842 
	C470.540619,478.895203 469.407715,477.072205 468.111725,476.019806 
	C453.227936,463.934143 446.294556,447.785278 444.758759,429.113586 
	C442.681885,403.863831 451.152618,381.689514 465.039856,361.116913 
	C475.004120,346.355865 486.511749,332.657959 495.345276,317.124786 
	C497.564301,313.222748 499.585968,309.208496 501.860657,304.907684 
z"/>
<path fill="#ED6B2F" opacity="1.000000" stroke="none" 
	d="
M589.590454,518.972046 
	C583.308655,495.672729 591.671875,477.478546 608.134644,462.105865 
	C618.055237,452.842163 630.395630,446.908569 641.196899,438.829346 
	C659.318542,425.274445 669.283081,407.099213 671.381592,384.736359 
	C671.854370,379.697998 670.468201,374.490021 669.991638,369.355133 
	C669.828918,367.602081 668.764404,365.831970 670.092163,363.833160 
	C672.812988,363.970001 673.816467,366.317505 674.956909,368.117676 
	C689.436218,390.972870 695.828369,415.919403 695.607971,443.003601 
	C695.402405,468.261353 688.418884,490.873749 672.964722,510.823975 
	C659.297058,528.468079 640.832947,539.522217 620.856018,548.466248 
	C613.722656,551.659973 607.442139,555.876282 603.775879,563.130493 
	C602.045959,566.553406 601.845581,570.427246 600.755981,574.246094 
	C595.350098,567.539368 596.683533,555.376099 603.396362,548.023804 
	C608.752625,542.157288 615.299866,537.815857 622.229370,534.165344 
	C648.703552,520.218567 666.182068,498.925079 674.288086,470.203430 
	C677.942322,457.255524 677.621338,443.852722 676.651855,430.520294 
	C676.544556,429.044891 676.276428,427.530975 674.812317,426.638153 
	C672.689209,426.671112 672.026733,428.470428 671.309998,429.814484 
	C664.276062,443.004364 652.411255,451.050903 640.479431,459.050812 
	C628.198792,467.284576 614.959351,474.345581 605.943848,486.639282 
	C599.354797,495.624451 594.834717,505.520203 593.215637,516.646118 
	C592.940918,518.533813 592.837524,520.555603 591.505737,522.129639 
	C589.913330,521.735046 589.925842,520.458313 589.590454,518.972046 
z"/>
<path fill="#ED6B2F" opacity="1.000000" stroke="none" 
	d="
M369.931091,474.028320 
	C375.748352,500.087982 389.306122,520.580566 410.514740,536.074280 
	C415.655487,539.829773 421.481476,542.348694 426.959686,545.493164 
	C428.799133,546.548950 431.036224,546.947266 433.004578,549.448486 
	C428.375031,551.104553 424.025909,549.854126 420.349487,548.732544 
	C387.487091,538.707031 364.230957,518.345398 353.604797,484.983185 
	C348.544250,469.094849 347.369110,452.692627 347.572144,436.107361 
	C347.692322,426.291046 347.286041,416.484833 346.098785,406.703217 
	C344.933228,397.100403 341.945160,388.240417 336.823395,380.061371 
	C336.129883,378.953857 335.636566,377.720947 335.129669,376.704803 
	C335.701660,375.306824 336.644318,375.164551 337.703156,375.322418 
	C366.071442,379.551514 393.626892,386.119965 417.642181,402.958160 
	C423.539703,407.093170 428.657318,412.100006 433.802460,417.084442 
	C435.292114,418.527527 436.103302,420.283936 436.394104,422.354675 
	C437.620300,431.086182 438.682159,439.847961 441.006592,448.388489 
	C441.155579,448.935883 440.838531,449.610077 440.749725,450.155151 
	C439.254089,450.393555 438.712250,449.483887 438.222900,448.630127 
	C425.820190,426.991211 406.166168,414.425720 383.837006,405.262665 
	C378.759186,403.178894 373.562866,401.361420 368.349731,399.637177 
	C364.297241,398.296814 363.117279,399.356232 363.977051,403.568634 
	C366.024139,413.598389 366.316589,423.744080 366.195343,433.916199 
	C366.035980,447.284576 366.986481,460.540314 369.931091,474.028320 
z"/>
<path fill="#ED6B2F" opacity="1.000000" stroke="none" 
	d="
M373.877533,584.959106 
	C386.618073,588.447937 398.776459,586.060852 411.057648,583.635620 
	C409.233032,587.016235 406.253510,588.413391 403.344971,589.765747 
	C375.532013,602.697205 349.753174,597.299744 325.680054,580.374695 
	C310.130432,569.442322 298.584320,554.370544 286.389587,540.046631 
	C278.830048,531.167236 270.436615,523.509888 258.788971,520.379333 
	C258.205261,520.222412 257.703430,519.760864 256.664154,519.145508 
	C260.197906,514.555481 265.186890,512.439331 269.635864,509.860626 
	C280.899292,503.332123 292.754272,498.020233 305.442291,494.848114 
	C319.006531,491.456909 332.495056,492.176147 345.904907,495.923340 
	C349.217163,496.848877 351.264832,498.778961 352.720978,501.904510 
	C354.737335,506.232452 357.229706,510.338593 359.411407,514.343567 
	C358.426910,515.927856 357.466309,515.365845 356.556946,515.028748 
	C335.940155,507.386169 315.411835,508.357330 295.027191,515.856384 
	C289.159912,518.014832 288.946442,519.306946 293.834137,523.339050 
	C305.261993,532.766479 313.158081,545.336548 323.249390,555.950500 
	C335.681946,569.026917 350.244019,578.577271 367.614319,583.675720 
	C369.515808,584.233887 371.507294,584.485291 373.877533,584.959106 
z"/>
<path fill="#31B6D6" opacity="1.000000" stroke="none" 
	d="
M413.767639,594.770996 
	C431.128357,584.285645 441.190643,569.752563 442.974884,549.444092 
	C444.118439,536.428223 443.837524,523.169617 448.471863,510.560944 
	C451.975433,501.028625 457.591797,493.845459 467.056335,489.575043 
	C473.571136,486.635590 480.520050,484.814209 486.803558,481.239105 
	C490.319214,479.238861 492.923187,476.757446 494.741364,473.293274 
	C495.796936,471.282104 496.284485,468.562683 499.668152,470.140472 
	C502.542633,471.480835 504.934143,472.936676 504.155365,476.827728 
	C502.799683,483.601288 499.169739,488.778778 493.367188,492.336182 
	C489.403107,494.766388 485.213684,496.832733 481.100006,499.014679 
	C468.484985,505.705872 462.292267,516.478577 461.491638,530.445740 
	C460.817383,542.208862 462.115387,554.050964 459.701996,565.756714 
	C456.513611,581.221436 447.643921,592.467407 434.603210,600.849182 
	C422.959412,608.333191 410.506256,613.623657 396.598114,614.780518 
	C385.566284,615.698181 375.011688,614.068542 365.636017,607.622009 
	C363.298035,606.014343 361.336487,604.116211 360.667572,599.744507 
	C379.553070,606.462769 397.011536,605.102844 413.767639,594.770996 
z"/>
<path fill="#61BE4A" opacity="1.000000" stroke="none" 
	d="
M512.106262,469.337646 
	C501.172272,468.167603 493.655670,461.927246 488.576141,453.558258 
	C479.271149,438.227325 477.009003,421.844788 485.205994,405.093445 
	C487.269592,400.876221 490.281647,397.211182 494.613190,395.061340 
	C497.630371,393.563873 498.201447,391.707062 497.675873,388.318726 
	C496.731049,382.227539 498.621948,376.735260 503.970825,373.055145 
	C509.085907,369.535980 516.755188,369.542725 521.873901,373.248993 
	C526.896118,376.885437 528.894592,382.011963 527.622986,388.130493 
	C527.072083,390.781281 527.618958,392.942017 529.868713,394.179840 
	C545.983887,403.046326 548.195312,425.955170 542.790771,441.412354 
	C539.697998,450.257874 535.034912,457.939240 527.680847,463.854828 
	C523.270142,467.402832 518.352905,469.603333 512.106262,469.337646 
M507.184723,407.542053 
	C504.789917,408.352936 502.730408,409.633240 500.902161,411.431061 
	C489.180054,422.957703 492.643311,448.202271 507.088928,456.209534 
	C512.471375,459.193024 518.984680,458.167328 522.881104,453.330231 
	C529.495422,445.119171 532.877991,435.766296 531.716492,425.104462 
	C530.359375,412.646576 518.966431,404.170532 507.184723,407.542053 
z"/>
<path fill="#61BE4A" opacity="1.000000" stroke="none" 
	d="
M477.194885,695.168152 
	C462.642670,711.182312 444.525513,718.655701 423.587372,720.274902 
	C400.246429,722.079895 379.895660,715.054932 362.429260,699.722595 
	C346.787048,685.991577 338.387115,662.031799 349.564911,639.383301 
	C353.376160,631.661011 361.868744,623.797180 368.152405,622.773682 
	C368.961731,624.972839 367.153534,626.130005 366.133667,627.460327 
	C353.005646,644.584167 354.002075,666.429749 368.825928,682.115601 
	C382.328369,696.403259 399.663696,701.798950 418.647644,702.829651 
	C439.035248,703.936462 458.255463,699.075256 476.671722,690.605164 
	C477.832977,690.071167 478.883423,688.997498 480.641998,689.957581 
	C481.095398,692.496521 478.405396,693.208008 477.194885,695.168152 
z"/>
<path fill="#31B6D6" opacity="1.000000" stroke="none" 
	d="
M469.225037,546.520569 
	C465.999420,537.042786 466.635071,528.163818 470.760406,519.519592 
	C471.514801,517.938782 472.038086,516.033386 474.174713,515.886292 
	C475.237854,516.455078 475.333191,517.359741 475.123413,518.123779 
	C473.085358,525.546997 475.616852,532.240906 478.304321,538.934937 
	C480.725220,544.964905 484.382355,550.411682 486.412903,556.638916 
	C488.421173,562.797852 489.489746,569.097778 490.157349,575.846191 
	C498.264587,563.704163 501.270020,548.718506 512.317322,538.593079 
	C522.928406,528.867493 533.546570,519.149536 544.697327,508.937622 
	C545.573975,513.344238 544.295837,516.448975 543.399292,519.548096 
	C539.691040,532.366760 533.117798,543.746765 525.152588,554.299866 
	C513.214111,570.117249 501.245483,585.923584 488.828308,601.363525 
	C480.908844,611.210999 470.587982,616.832886 457.373993,615.287170 
	C454.784790,614.984314 452.093048,614.840881 450.378693,612.568665 
	C450.726685,611.091980 451.743225,610.988831 452.728699,610.760437 
	C469.164429,606.950439 475.561401,594.745117 476.593750,580.769470 
	C477.473969,568.852478 473.968475,557.718872 469.225037,546.520569 
z"/>
<path fill="#ED6B2F" opacity="1.000000" stroke="none" 
	d="
M714.036133,513.842163 
	C718.609070,512.689758 722.992493,512.478210 727.682312,510.103241 
	C720.943298,508.798706 714.899292,508.980316 708.782959,510.042419 
	C702.646118,511.108124 696.958618,513.248840 691.458923,516.148376 
	C685.907837,519.074951 680.844849,522.755981 675.847839,526.336670 
	C674.486633,525.011047 675.062927,524.059326 675.553223,523.241943 
	C688.561462,501.554230 708.476501,489.014526 735.649536,492.596771 
	C739.114197,493.053558 742.550415,493.722290 746.006165,494.251129 
	C753.914856,495.461365 755.328857,495.114594 769.830505,488.582550 
	C771.256897,498.986511 757.299927,519.913208 744.358582,528.491577 
	C728.978760,538.686340 708.845642,537.172241 690.127197,525.832397 
	C696.544373,518.727173 705.088501,516.329407 714.036133,513.842163 
z"/>
<path fill="#ED6B2F" opacity="1.000000" stroke="none" 
	d="
M631.539246,343.547516 
	C646.819336,369.161133 636.398987,397.812775 615.344971,412.288696 
	C614.032715,411.666565 614.473572,410.634430 614.845459,409.733368 
	C623.242798,389.385803 618.272705,371.094330 606.760193,353.497467 
	C595.748901,336.666656 591.751831,318.689697 600.617859,299.551544 
	C604.396912,291.394196 609.393860,284.039062 617.468140,279.565186 
	C618.987427,280.719086 618.471924,281.649567 618.017395,282.531708 
	C610.525024,297.071350 612.216431,311.163635 620.195129,324.877197 
	C623.794983,331.064484 627.622192,337.119507 631.539246,343.547516 
z"/>
<path fill="#ED6B2F" opacity="1.000000" stroke="none" 
	d="
M323.540283,611.589417 
	C331.421844,612.090332 338.822388,611.935425 345.876068,610.039246 
	C346.677185,611.358521 346.325958,612.105469 345.750275,612.735291 
	C335.913361,623.497253 324.498108,630.337585 309.167450,627.381897 
	C304.242645,626.432434 299.492065,624.859741 294.945709,622.808105 
	C287.540985,619.466675 280.129456,616.164551 272.496490,613.982239 
	C272.376373,613.221008 272.163483,612.763855 272.299255,612.605286 
	C282.207001,601.032715 293.235443,590.913818 309.187439,589.184814 
	C322.589752,587.731995 332.241180,595.305603 341.246979,604.127563 
	C331.204102,606.072510 320.910645,603.867554 310.678528,607.804993 
	C314.734558,610.595337 319.082275,610.553589 323.540283,611.589417 
z"/>
<path fill="#ED6B2F" opacity="1.000000" stroke="none" 
	d="
M717.765137,473.741638 
	C721.390259,467.835815 725.153259,462.367645 725.240540,455.211487 
	C717.531616,462.660217 714.083374,473.814209 703.716125,479.613281 
	C700.928772,471.725494 701.592529,464.173065 703.616882,456.843353 
	C707.074646,444.323212 716.167908,436.770050 727.561096,431.671356 
	C731.654053,429.839661 735.907715,428.346741 740.359253,427.504822 
	C742.765503,427.049713 744.399780,427.468567 744.253479,430.331116 
	C743.778076,439.626556 745.252075,448.982758 743.284729,458.234344 
	C739.948181,473.923645 726.111938,481.871338 711.846741,484.046478 
	C711.452209,484.106659 710.986450,483.699860 710.242249,483.374573 
	C712.012085,479.619690 715.425415,477.303497 717.765137,473.741638 
z"/>
<path fill="#31B6D6" opacity="1.000000" stroke="none" 
	d="
M595.165039,409.338745 
	C594.530273,399.235596 589.188599,391.423492 584.977051,383.154266 
	C577.510803,368.494568 578.309570,353.977142 586.094238,339.727081 
	C587.113525,337.861145 587.972961,335.409119 590.515442,335.086273 
	C591.636597,335.718231 591.934937,336.488678 591.747437,337.353607 
	C589.639893,347.076477 593.432495,355.342590 598.271729,363.277100 
	C603.208923,371.372284 608.634766,379.208405 609.902710,388.959045 
	C611.992554,405.030060 606.855286,418.401306 594.914795,429.244293 
	C594.288818,429.812683 593.589233,430.256409 591.715515,429.744415 
	C594.468018,423.373169 595.530273,416.645508 595.165039,409.338745 
z"/>
<path fill="#ED6B2F" opacity="1.000000" stroke="none" 
	d="
M409.060730,372.670349 
	C405.058228,362.051331 406.650696,352.026031 410.413452,342.168213 
	C413.915436,332.993683 413.960205,333.136902 422.026794,339.194427 
	C430.721588,345.723724 438.579254,352.681030 439.763123,364.465942 
	C440.784149,374.630341 437.115234,383.750824 433.652832,392.923920 
	C432.793030,395.201813 431.232849,395.344086 429.301147,394.015137 
	C421.150360,388.407623 413.462799,382.369446 409.060730,372.670349 
z"/>
<path fill="#ED6B2F" opacity="1.000000" stroke="none" 
	d="
M335.658142,461.497040 
	C337.584534,466.529083 338.759766,471.349091 339.342194,476.316956 
	C339.565582,478.222168 339.273071,479.787872 336.895203,479.620300 
	C327.591553,478.964813 318.326660,478.198975 310.220795,472.760010 
	C305.397980,469.523956 301.876038,465.462128 299.541077,460.013184 
	C296.779846,453.569458 296.419708,446.546021 293.167267,440.274261 
	C307.253815,436.803711 330.262299,440.859253 335.658142,461.497040 
z"/>
<path fill="#61BE4A" opacity="1.000000" stroke="none" 
	d="
M429.630249,522.449097 
	C408.919342,517.205872 399.051178,502.351807 393.822571,483.563171 
	C391.055328,473.619080 390.221619,463.318542 389.601837,452.992676 
	C389.259186,447.284058 387.646240,441.651672 386.371613,434.708557 
	C391.150635,437.460571 393.353882,441.001801 395.301056,444.699463 
	C400.188843,453.981323 401.635406,464.292572 403.690216,474.361481 
	C407.651672,493.773346 418.125977,508.763153 433.743500,520.494690 
	C434.251709,520.876404 434.674255,521.377747 435.103912,521.852966 
	C435.176483,521.933289 435.081177,522.165222 435.048615,522.462219 
	C433.450439,524.039124 431.713654,522.697632 429.630249,522.449097 
z"/>
<path fill="#ED6B2F" opacity="1.000000" stroke="none" 
	d="
M343.096619,542.892822 
	C338.590546,538.489380 333.189758,535.898865 327.963226,532.321106 
	C330.636719,530.110229 332.889923,531.405396 334.903503,532.009521 
	C345.654266,535.234619 355.570068,540.193237 364.691742,546.749573 
	C378.818054,556.903015 394.293671,563.239929 411.982025,562.457581 
	C417.686005,562.205200 423.340851,560.841797 429.232941,560.472412 
	C425.687164,565.158936 420.702240,567.548462 415.380463,569.234741 
	C396.157349,575.325439 379.001007,569.896790 362.959167,559.309814 
	C355.875031,554.634583 349.509796,548.988953 343.096619,542.892822 
z"/>
<path fill="#61BE4A" opacity="1.000000" stroke="none" 
	d="
M576.633667,737.635193 
	C569.288696,735.823425 564.245300,731.269592 559.589539,726.227112 
	C555.166748,721.436890 550.698914,716.686340 544.635254,711.635498 
	C555.341248,710.706726 563.804321,713.024597 571.775635,716.562012 
	C585.249207,722.541199 598.698608,728.070923 613.893066,726.690674 
	C614.300049,726.653748 614.748962,727.079773 615.171509,727.286560 
	C611.834778,735.777283 590.794250,741.514099 576.633667,737.635193 
z"/>
<path fill="#61BE4A" opacity="1.000000" stroke="none" 
	d="
M626.767761,494.741394 
	C638.750061,486.835571 646.975830,475.961029 654.613831,464.283447 
	C654.750244,471.193878 652.774719,477.352142 649.687012,483.149078 
	C644.737305,492.442047 637.184875,499.464783 629.146912,506.006287 
	C618.803345,514.424194 608.514648,522.903381 601.528015,534.541321 
	C599.437012,538.024292 597.716003,541.729431 595.478760,545.993774 
	C593.609863,542.183105 594.703369,539.122864 595.165833,536.180237 
	C597.321411,522.465698 604.607056,511.875610 615.435913,503.512024 
	C619.122559,500.664703 622.807800,497.815491 626.767761,494.741394 
z"/>
<path fill="#61BE4A" opacity="1.000000" stroke="none" 
	d="
M450.788544,642.964355 
	C460.922577,645.714111 470.308868,649.573059 480.399933,650.989014 
	C480.204742,653.977478 478.007141,653.765991 476.413391,654.187927 
	C467.243134,656.615784 458.227539,655.248657 449.412476,652.540161 
	C437.875854,648.995483 426.319183,646.345032 414.172211,648.825134 
	C413.821411,648.896790 413.358612,648.419556 412.331970,647.866150 
	C417.104309,642.751221 423.135834,641.640625 429.248260,640.586914 
	C436.533020,639.331177 443.387146,641.687805 450.788544,642.964355 
z"/>
<path fill="#61BE4A" opacity="1.000000" stroke="none" 
	d="
M467.611145,729.280151 
	C466.236053,737.411987 462.091675,743.154968 455.425629,747.114075 
	C453.565399,748.218872 451.476105,748.930054 450.616333,746.065002 
	C446.609039,732.711548 453.400391,716.598877 468.276794,713.162231 
	C468.805573,718.490540 468.229034,723.673462 467.611145,729.280151 
z"/>
<path fill="#31B6D6" opacity="1.000000" stroke="none" 
	d="
M524.214600,471.331909 
	C527.176941,469.287811 529.033875,470.054810 530.622620,472.678741 
	C531.812195,474.643555 533.214722,476.513947 534.744812,478.227905 
	C536.117676,479.765778 536.068787,481.167419 534.947876,482.659302 
	C533.485657,484.605499 532.456299,487.416687 529.733704,487.569305 
	C526.655212,487.741913 525.187927,484.970825 524.161621,482.616058 
	C522.614807,479.067291 519.325134,475.328491 524.214600,471.331909 
z"/>
</svg>

